Alegreya Sans SC-Thin.ufo
<glyph name="quotesingle" format="1">
  <advance width="125"/>
  <unicode hex="0027"/>
  <outline>
    <contour>
      <point x="59" y="633" type="line"/>
      <point x="47" y="489" type="line"/>
      <point x="50" y="485" type="line"/>
      <point x="67" y="487" type="line"/>
      <point x="79" y="631" type="line"/>
      <point x="76" y="635" type="line"/>
    </contour>
  </outline>
</glyph>
<glyph name="F" format="1">
  <advance width="411"/>
  <unicode hex="0046"/>
  <outline>
    <contour>
      <point x="110" y="637" type="line"/>
      <point x="110" y="195" type="line"/>
      <point x="110" y="0" type="line"/>
      <point x="130" y="0" type="line"/>
      <point x="130" y="195" type="line"/>
      <point x="130" y="637" type="line"/>
    </contour>
    <contour>
      <point x="257" y="330" type="line"/>
      <point x="124" y="330" type="line"/>
      <point x="124" y="310" type="line"/>
      <point x="253" y="310" type="line"/>
      <point x="356" y="310" type="line"/>
      <point x="360" y="326" type="line"/>
      <point x="357" y="330" type="line"/>
    </contour>
    <contour>
      <point x="124" y="637" type="line"/>
      <point x="120" y="621" type="line"/>
      <point x="124" y="617" type="line"/>
      <point x="266" y="617" type="line"/>
      <point x="406" y="617" type="line"/>
      <point x="410" y="633" type="line"/>
      <point x="407" y="637" type="line"/>
    </contour>
  </outline>
</glyph>
<glyph name="H" format="1">
  <advance width="670"/>
  <unicode hex="0048"/>
  <outline>
    <contour>
      <point x="540" y="637" type="line"/>
      <point x="540" y="195" type="line"/>
      <point x="540" y="0" type="line"/>
      <point x="560" y="0" type="line"/>
      <point x="560" y="195" type="line"/>
      <point x="560" y="637" type="line"/>
    </contour>
    <contour>
      <point x="110" y="637" type="line"/>
      <point x="110" y="195" type="line"/>
      <point x="110" y="0" type="line"/>
      <point x="130" y="0" type="line"/>
      <point x="130" y="195" type="line"/>
      <point x="130" y="637" type="line"/>
    </contour>
    <contour>
      <point x="124" y="314" type="line"/>
      <point x="328" y="314" type="line"/>
      <point x="549" y="314" type="line"/>
      <point x="549" y="334" type="line"/>
      <point x="332" y="334" type="line"/>
      <point x="124" y="334" type="line"/>
    </contour>
    <contour>
      <point x="330" y="319" type="move" name="center"/>
    </contour>
    <contour>
      <point x="330" y="637" type="move" name="top"/>
    </contour>
  </outline>
</glyph>
<glyph name="J" format="1">
  <advance width="268"/>
  <unicode hex="004A"/>
  <outline>
    <contour>
      <point x="140" y="637" type="line"/>
      <point x="140" y="208" type="line"/>
      <point x="140" y="113" type="line" smooth="yes"/>
      <point x="140" y="30"/>
      <point x="106" y="-25"/>
      <point x="20" y="-81" type="curve"/>
      <point x="20" y="-87" type="line"/>
      <point x="31" y="-98" type="line"/>
      <point x="124" y="-37"/>
      <point x="160" y="21"/>
      <point x="160" y="115" type="curve" smooth="yes"/>
      <point x="160" y="212" type="line"/>
      <point x="160" y="637" type="line"/>
    </contour>
    <contour>
      <point x="11" y="637" type="line"/>
      <point x="8" y="621" type="line"/>
      <point x="12" y="617" type="line"/>
      <point x="150" y="617" type="line"/>
      <point x="150" y="637" type="line"/>
    </contour>
    <contour>
      <point x="108" y="637" type="move" name="top"/>
    </contour>
  </outline>
</glyph>
<glyph name="bracketleft" format="1">
  <advance width="281"/>
  <unicode hex="005B"/>
  <outline>
    <contour>
      <point x="117" y="636" type="line"/>
      <point x="117" y="257" type="line"/>
      <point x="117" y="-123" type="line"/>
      <point x="263" y="-133" type="line"/>
      <point x="267" y="-129" type="line"/>
      <point x="267" y="-114" type="line"/>
      <point x="137" y="-105" type="line"/>
      <point x="137" y="618" type="line"/>
      <point x="267" y="627" type="line"/>
      <point x="267" y="642" type="line"/>
      <point x="263" y="646" type="line"/>
    </contour>
  </outline>
</glyph>
<glyph name="underscore" format="1">
  <advance width="455"/>
  <unicode hex="005F"/>
  <outline>
    <contour>
      <point x="-13" y="-86" type="line"/>
      <point x="-15" y="-103" type="line"/>
      <point x="-12" y="-106" type="line"/>
      <point x="468" y="-106" type="line"/>
      <point x="470" y="-89" type="line"/>
      <point x="467" y="-86" type="line"/>
    </contour>
  </outline>
</glyph>
<glyph name="a" format="1">
  <advance width="494"/>
  <unicode hex="0061"/>
  <outline>
    <contour>
      <point x="241" y="491" type="line"/>
      <point x="34" y="0" type="line" smooth="yes"/>
      <point x="57" y="0" type="line"/>
      <point x="69" y="35" type="line"/>
      <point x="249" y="461" type="line"/>
      <point x="252" y="461" type="line"/>
      <point x="419" y="35" type="line"/>
      <point x="429" y="0" type="line"/>
      <point x="452" y="0" type="line"/>
      <point x="262" y="491" type="line"/>
    </contour>
    <contour>
      <point x="243" y="180" type="line"/>
      <point x="119" y="180" type="line"/>
      <point x="115" y="161" type="line"/>
      <point x="240" y="161" type="line"/>
      <point x="377" y="161" type="line"/>
      <point x="373" y="180" type="line"/>
    </contour>
    <contour>
      <point x="476" y="8" type="move" name="ogonek"/>
    </contour>
    <contour>
      <point x="251" y="491" type="move" name="top"/>
    </contour>
  </outline>
</glyph>
<glyph name="e" format="1">
  <advance width="412"/>
  <unicode hex="0065"/>
  <outline>
    <contour>
      <point x="108" y="491" type="line"/>
      <point x="108" y="150" type="line"/>
      <point x="108" y="0" type="line"/>
      <point x="128" y="0" type="line"/>
      <point x="128" y="151" type="line"/>
      <point x="128" y="491" type="line"/>
    </contour>
    <contour>
      <point x="236" y="19" type="line"/>
      <point x="122" y="19" type="line"/>
      <point x="119" y="3" type="line"/>
      <point x="122" y="0" type="line"/>
      <point x="366" y="0" type="line"/>
      <point x="370" y="16" type="line"/>
      <point x="367" y="19" type="line"/>
    </contour>
    <contour>
      <point x="235" y="264" type="line"/>
      <point x="122" y="264" type="line"/>
      <point x="119" y="248" type="line"/>
      <point x="122" y="244" type="line"/>
      <point x="232" y="244" type="line"/>
      <point x="322" y="244" type="line"/>
      <point x="325" y="260" type="line"/>
      <point x="323" y="264" type="line"/>
    </contour>
    <contour>
      <point x="122" y="491" type="line"/>
      <point x="119" y="475" type="line"/>
      <point x="122" y="472" type="line"/>
      <point x="242" y="472" type="line"/>
      <point x="363" y="471" type="line"/>
      <point x="367" y="487" type="line"/>
      <point x="364" y="491" type="line"/>
    </contour>
    <contour>
      <point x="238" y="0" type="move" name="bottom"/>
    </contour>
    <contour>
      <point x="374" y="8" type="move" name="ogonek"/>
    </contour>
    <contour>
      <point x="237" y="491" type="move" name="top"/>
    </contour>
  </outline>
</glyph>
<glyph name="f" format="1">
  <advance width="369"/>
  <unicode hex="0066"/>
  <outline>
    <contour>
      <point x="102" y="491" type="line"/>
      <point x="102" y="150" type="line"/>
      <point x="102" y="0" type="line"/>
      <point x="122" y="0" type="line"/>
      <point x="122" y="151" type="line"/>
      <point x="122" y="491" type="line"/>
    </contour>
    <contour>
      <point x="225" y="255" type="line"/>
      <point x="116" y="255" type="line"/>
      <point x="116" y="236" type="line"/>
      <point x="222" y="236" type="line"/>
      <point x="307" y="236" type="line"/>
      <point x="310" y="252" type="line"/>
      <point x="307" y="256" type="line"/>
    </contour>
    <contour>
      <point x="116" y="491" type="line"/>
      <point x="113" y="475" type="line"/>
      <point x="116" y="472" type="line"/>
      <point x="232" y="472" type="line"/>
      <point x="348" y="471" type="line"/>
      <point x="351" y="487" type="line"/>
      <point x="349" y="491" type="line"/>
    </contour>
  </outline>
</glyph>
<glyph name="h" format="1">
  <advance width="588"/>
  <unicode hex="0068"/>
  <outline>
    <contour>
      <point x="460" y="491" type="line"/>
      <point x="460" y="150" type="line"/>
      <point x="460" y="0" type="line"/>
      <point x="480" y="0" type="line"/>
      <point x="480" y="151" type="line"/>
      <point x="480" y="491" type="line"/>
    </contour>
    <contour>
      <point x="108" y="491" type="line"/>
      <point x="108" y="150" type="line"/>
      <point x="108" y="0" type="line"/>
      <point x="128" y="0" type="line"/>
      <point x="128" y="151" type="line"/>
      <point x="128" y="491" type="line"/>
    </contour>
    <contour>
      <point x="123" y="240" type="line"/>
      <point x="288" y="240" type="line"/>
      <point x="467" y="240" type="line"/>
      <point x="467" y="259" type="line"/>
      <point x="292" y="259" type="line"/>
      <point x="123" y="259" type="line"/>
    </contour>
    <contour>
      <point x="271" y="246" type="move" name="center"/>
    </contour>
    <contour>
      <point x="294" y="491" type="move" name="top"/>
    </contour>
  </outline>
</glyph>
<glyph name="j" format="1">
  <advance width="261"/>
  <unicode hex="006A"/>
  <outline>
    <contour>
      <point x="133" y="491" type="line"/>
      <point x="133" y="160" type="line"/>
      <point x="133" y="88" type="line" smooth="yes"/>
      <point x="133" y="24"/>
      <point x="109" y="-18"/>
      <point x="48" y="-60" type="curve"/>
      <point x="48" y="-65" type="line"/>
      <point x="60" y="-76" type="line"/>
      <point x="128" y="-29"/>
      <point x="153" y="16"/>
      <point x="153" y="89" type="curve" smooth="yes"/>
      <point x="153" y="163" type="line"/>
      <point x="153" y="491" type="line"/>
    </contour>
    <contour>
      <point x="31" y="491" type="line"/>
      <point x="28" y="475" type="line"/>
      <point x="31" y="472" type="line"/>
      <point x="141" y="472" type="line"/>
      <point x="141" y="491" type="line"/>
    </contour>
  </outline>
</glyph>
<glyph name="k" format="1">
  <advance width="457"/>
  <unicode hex="006B"/>
  <outline>
    <contour>
      <point x="388" y="491" type="line"/>
      <point x="353" y="454" type="line"/>
      <point x="151" y="263" type="line"/>
      <point x="151" y="260" type="line"/>
      <point x="231" y="169"/>
      <point x="321" y="79"/>
      <point x="411" y="-4" type="curve"/>
      <point x="415" y="-6" type="line"/>
      <point x="420" y="-4"/>
      <point x="427" y="-2"/>
      <point x="430" y="1" type="curve"/>
      <point x="431" y="5" type="line"/>
      <point x="343" y="84"/>
      <point x="254" y="174"/>
      <point x="177" y="262" type="curve"/>
      <point x="417" y="491" type="line"/>
    </contour>
    <contour>
      <point x="108" y="491" type="line"/>
      <point x="108" y="150" type="line"/>
      <point x="108" y="0" type="line"/>
      <point x="128" y="0" type="line"/>
      <point x="128" y="151" type="line"/>
      <point x="128" y="491" type="line"/>
    </contour>
    <contour>
      <point x="225" y="0" type="move" name="bottom"/>
    </contour>
    <contour>
      <point x="209" y="491" type="move" name="top"/>
    </contour>
  </outline>
</glyph>
<glyph name="l" format="1">
  <advance width="365"/>
  <unicode hex="006C"/>
  <outline>
    <contour>
      <point x="107" y="491" type="line"/>
      <point x="107" y="150" type="line"/>
      <point x="107" y="0" type="line"/>
      <point x="127" y="0" type="line"/>
      <point x="127" y="151" type="line"/>
      <point x="127" y="491" type="line"/>
    </contour>
    <contour>
      <point x="119" y="19" type="line"/>
      <point x="115" y="3" type="line"/>
      <point x="119" y="0" type="line"/>
      <point x="339" y="0" type="line"/>
      <point x="342" y="16" type="line"/>
      <point x="340" y="19" type="line"/>
    </contour>
    <contour>
      <point x="193" y="0" type="move" name="bottom"/>
    </contour>
    <contour>
      <point x="161" y="491" type="move" name="top"/>
    </contour>
  </outline>
</glyph>
<glyph name="m" format="1">
  <advance width="678"/>
  <unicode hex="006D"/>
  <outline>
    <contour>
      <point x="520" y="491" type="line"/>
      <point x="489" y="423" type="line"/>
      <point x="339" y="91" type="line"/>
      <point x="336" y="91" type="line"/>
      <point x="193" y="415" type="line"/>
      <point x="161" y="491" type="line"/>
      <point x="137" y="491" type="line"/>
      <point x="80" y="0" type="line"/>
      <point x="101" y="0" type="line"/>
      <point x="117" y="151" type="line"/>
      <point x="152" y="447" type="line"/>
      <point x="156" y="447" type="line"/>
      <point x="326" y="62" type="line"/>
      <point x="349" y="62" type="line"/>
      <point x="522" y="447" type="line"/>
      <point x="526" y="447" type="line"/>
      <point x="562" y="150" type="line"/>
      <point x="578" y="0" type="line"/>
      <point x="598" y="0" type="line"/>
      <point x="543" y="491" type="line"/>
    </contour>
  </outline>
</glyph>
<glyph name="n" format="1">
  <advance width="588"/>
  <unicode hex="006E"/>
  <outline>
    <contour>
      <point x="460" y="490" type="line"/>
      <point x="459" y="40" type="line"/>
      <point x="455" y="40" type="line"/>
      <point x="129" y="491" type="line"/>
      <point x="109" y="491" type="line"/>
      <point x="108" y="146" type="line"/>
      <point x="108" y="0" type="line"/>
      <point x="128" y="0" type="line"/>
      <point x="128" y="154" type="line"/>
      <point x="129" y="451" type="line"/>
      <point x="132" y="451" type="line"/>
      <point x="458" y="0" type="line"/>
      <point x="478" y="0" type="line"/>
      <point x="479" y="137" type="line"/>
      <point x="480" y="492" type="line"/>
    </contour>
    <contour>
      <point x="291" y="0" type="move" name="bottom"/>
    </contour>
    <contour>
      <point x="292" y="491" type="move" name="top"/>
    </contour>
  </outline>
</glyph>
<glyph name="p" format="1">
  <advance width="437"/>
  <unicode hex="0070"/>
  <outline>
    <contour>
      <point x="108" y="491" type="line"/>
      <point x="115" y="473" type="line"/>
      <point x="231" y="474" type="line"/>
      <point x="312" y="470"/>
      <point x="356" y="428"/>
      <point x="356" y="353" type="curve" smooth="yes"/>
      <point x="356" y="270"/>
      <point x="309" y="217"/>
      <point x="225" y="209" type="curve"/>
      <point x="118" y="209" type="line"/>
      <point x="118" y="190" type="line"/>
      <point x="200" y="190" type="line"/>
      <point x="313" y="190"/>
      <point x="377" y="248"/>
      <point x="377" y="354" type="curve" smooth="yes"/>
      <point x="377" y="443"/>
      <point x="323" y="492"/>
      <point x="227" y="492" type="curve"/>
    </contour>
    <contour>
      <point x="108" y="491" type="line"/>
      <point x="108" y="150" type="line"/>
      <point x="108" y="0" type="line"/>
      <point x="128" y="0" type="line"/>
      <point x="128" y="151" type="line"/>
      <point x="128" y="491" type="line"/>
    </contour>
  </outline>
</glyph>
<glyph name="t" format="1">
  <advance width="428"/>
  <unicode hex="0074"/>
  <outline>
    <contour>
      <point x="205" y="483" type="line"/>
      <point x="205" y="150" type="line"/>
      <point x="205" y="0" type="line"/>
      <point x="225" y="0" type="line"/>
      <point x="225" y="151" type="line"/>
      <point x="225" y="483" type="line"/>
    </contour>
    <contour>
      <point x="45" y="491" type="line"/>
      <point x="42" y="475" type="line"/>
      <point x="45" y="471" type="line"/>
      <point x="131" y="472" type="line"/>
      <point x="301" y="472" type="line"/>
      <point x="384" y="471" type="line"/>
      <point x="387" y="487" type="line"/>
      <point x="385" y="491" type="line"/>
    </contour>
    <contour>
      <point x="208" y="0" type="move" name="bottom"/>
    </contour>
    <contour>
      <point x="199" y="246" type="move" name="center"/>
    </contour>
    <contour>
      <point x="212" y="491" type="move" name="top"/>
    </contour>
  </outline>
</glyph>
<glyph name="u" format="1">
  <advance width="541"/>
  <unicode hex="0075"/>
  <outline>
    <contour>
      <point x="432" y="491" type="line"/>
      <point x="432" y="177" type="line" smooth="yes"/>
      <point x="432" y="73"/>
      <point x="375" y="16"/>
      <point x="270" y="16" type="curve" smooth="yes"/>
      <point x="165" y="16"/>
      <point x="108" y="73"/>
      <point x="109" y="177" type="curve" smooth="yes"/>
      <point x="111" y="491" type="line"/>
      <point x="90" y="491" type="line"/>
      <point x="90" y="248" type="line"/>
      <point x="89" y="176" type="line" smooth="yes"/>
      <point x="87" y="61"/>
      <point x="152" y="-3"/>
      <point x="270" y="-3" type="curve" smooth="yes"/>
      <point x="387" y="-3"/>
      <point x="455" y="63"/>
      <point x="452" y="176" type="curve"/>
      <point x="452" y="240" type="line"/>
      <point x="452" y="491" type="line"/>
    </contour>
    <contour>
      <point x="424" y="8" type="move" name="ogonek"/>
    </contour>
    <contour>
      <point x="274" y="491" type="move" name="top"/>
    </contour>
  </outline>
</glyph>
<glyph name="brokenbar" format="1">
  <advance width="320"/>
  <unicode hex="00A6"/>
  <outline>
    <contour>
      <point x="150" y="789" type="line"/>
      <point x="150" y="369" type="line"/>
      <point x="153" y="366" type="line"/>
      <point x="170" y="368" type="line"/>
      <point x="170" y="789" type="line"/>
      <point x="168" y="791" type="line"/>
    </contour>
    <contour>
      <point x="150" y="157" type="line"/>
      <point x="150" y="-261" type="line"/>
      <point x="153" y="-265" type="line"/>
      <point x="170" y="-265" type="line"/>
      <point x="170" y="155" type="line"/>
      <point x="167" y="160" type="line"/>
    </contour>
  </outline>
</glyph>
<glyph name="dieresis" format="1">
  <advance width="390"/>
  <unicode hex="00A8"/>
  <outline>
    <component base="dotaccent" xOffset="9" yOffset="-16"/>
    <component base="dotaccent" xOffset="149" yOffset="-16"/>
    <contour>
      <point x="194" y="452" type="move" name="_top"/>
    </contour>
  </outline>
</glyph>
<glyph name="AE" format="1">
  <advance width="791"/>
  <unicode hex="00C6"/>
  <outline>
    <contour>
      <point x="353" y="637" type="line"/>
      <point x="-15" y="0" type="line"/>
      <point x="12" y="0" type="line"/>
      <point x="33" y="43" type="line"/>
      <point x="355" y="602" type="line"/>
      <point x="358" y="602" type="line"/>
      <point x="453" y="43" type="line"/>
      <point x="458" y="0" type="line"/>
      <point x="762" y="0" type="line"/>
      <point x="766" y="16" type="line"/>
      <point x="764" y="20" type="line"/>
      <point x="600" y="20" type="line"/>
      <point x="477" y="20" type="line"/>
      <point x="377" y="617" type="line"/>
      <point x="485" y="617" type="line"/>
      <point x="652" y="617" type="line"/>
      <point x="657" y="633" type="line"/>
      <point x="654" y="637" type="line"/>
    </contour>
    <contour>
      <point x="422" y="312" type="line"/>
      <point x="141" y="266" type="line"/>
      <point x="128" y="243" type="line"/>
      <point x="420" y="292" type="line"/>
      <point x="664" y="332" type="line"/>
      <point x="667" y="349" type="line"/>
      <point x="664" y="352" type="line"/>
    </contour>
    <contour>
      <point x="493" y="637" type="move" name="top"/>
    </contour>
  </outline>
</glyph>
<glyph name="ae" format="1">
  <advance width="688"/>
  <unicode hex="00E6"/>
  <outline>
    <contour>
      <point x="307" y="491" type="line"/>
      <point x="7" y="0" type="line"/>
      <point x="33" y="0" type="line"/>
      <point x="50" y="35" type="line"/>
      <point x="310" y="460" type="line"/>
      <point x="313" y="460" type="line"/>
      <point x="389" y="35" type="line"/>
      <point x="394" y="0" type="line"/>
      <point x="646" y="0" type="line"/>
      <point x="649" y="16" type="line"/>
      <point x="647" y="19" type="line"/>
      <point x="513" y="19" type="line"/>
      <point x="412" y="19" type="line"/>
      <point x="333" y="472" type="line"/>
      <point x="420" y="472" type="line"/>
      <point x="557" y="471" type="line"/>
      <point x="561" y="487" type="line"/>
      <point x="558" y="491" type="line"/>
    </contour>
    <contour>
      <point x="368" y="242" type="line"/>
      <point x="135" y="205" type="line"/>
      <point x="124" y="183" type="line"/>
      <point x="366" y="223" type="line"/>
      <point x="566" y="254" type="line"/>
      <point x="568" y="271" type="line"/>
      <point x="565" y="273" type="line"/>
    </contour>
    <contour>
      <point x="405" y="491" type="move" name="top"/>
    </contour>
  </outline>
</glyph>
<glyph name="eth" format="1">
  <advance width="570"/>
  <unicode hex="00F0"/>
  <outline>
    <contour>
      <point x="16" y="254" type="line"/>
      <point x="15" y="237" type="line"/>
      <point x="17" y="234" type="line"/>
      <point x="287" y="234" type="line"/>
      <point x="288" y="251" type="line"/>
      <point x="286" y="254" type="line"/>
    </contour>
    <component base="d" xOffset="9"/>
  </outline>
</glyph>
<glyph name="thorn" format="1">
  <advance width="440"/>
  <unicode hex="00FE"/>
  <outline>
    <contour>
      <point x="108" y="397" type="line"/>
      <point x="115" y="379" type="line"/>
      <point x="231" y="380" type="line"/>
      <point x="312" y="377"/>
      <point x="356" y="334"/>
      <point x="356" y="259" type="curve" smooth="yes"/>
      <point x="356" y="176"/>
      <point x="310" y="125"/>
      <point x="225" y="115" type="curve"/>
      <point x="118" y="115" type="line"/>
      <point x="118" y="96" type="line"/>
      <point x="200" y="96" type="line"/>
      <point x="314" y="96"/>
      <point x="377" y="155"/>
      <point x="377" y="260" type="curve" smooth="yes"/>
      <point x="377" y="349"/>
      <point x="323" y="398"/>
      <point x="227" y="398" type="curve"/>
    </contour>
    <contour>
      <point x="108" y="491" type="line"/>
      <point x="108" y="150" type="line"/>
      <point x="108" y="0" type="line"/>
      <point x="128" y="0" type="line"/>
      <point x="128" y="151" type="line"/>
      <point x="128" y="491" type="line"/>
    </contour>
  </outline>
</glyph>
<glyph name="Aogonek" format="1">
  <advance width="554"/>
  <unicode hex="0104"/>
  <outline>
    <contour>
      <point x="504" y="0" type="line"/>
      <point x="455" y="-77"/>
      <point x="441" y="-108"/>
      <point x="441" y="-134" type="curve" smooth="yes"/>
      <point x="441" y="-170"/>
      <point x="467" y="-197"/>
      <point x="506" y="-197" type="curve" smooth="yes"/>
      <point x="541" y="-197"/>
      <point x="573" y="-175"/>
      <point x="600" y="-140" type="curve"/>
      <point x="589" y="-124" type="line"/>
      <point x="587" y="-124" type="line"/>
      <point x="563" y="-157"/>
      <point x="534" y="-177"/>
      <point x="506" y="-177" type="curve" smooth="yes"/>
      <point x="478" y="-177"/>
      <point x="461" y="-158"/>
      <point x="461" y="-132" type="curve" smooth="yes"/>
      <point x="461" y="-108"/>
      <point x="475" y="-77"/>
      <point x="524" y="0" type="curve"/>
    </contour>
    <component base="A"/>
  </outline>
</glyph>
<glyph name="hbar" format="1">
  <advance width="610"/>
  <unicode hex="0127"/>
  <outline>
    <contour>
      <point x="65" y="382" type="line"/>
      <point x="63" y="367" type="line"/>
      <point x="66" y="364" type="line"/>
      <point x="548" y="364" type="line"/>
      <point x="550" y="380" type="line"/>
      <point x="546" y="382" type="line"/>
    </contour>
    <component base="h" xOffset="11"/>
  </outline>
</glyph>
<glyph name="iogonek" format="1">
  <advance width="237"/>
  <unicode hex="012F"/>
  <outline>
    <contour>
      <point x="108" y="0" type="line"/>
      <point x="57" y="-75"/>
      <point x="29" y="-119"/>
      <point x="29" y="-151" type="curve" smooth="yes"/>
      <point x="29" y="-176"/>
      <point x="47" y="-197"/>
      <point x="77" y="-197" type="curve" smooth="yes"/>
      <point x="104" y="-197"/>
      <point x="122" y="-181"/>
      <point x="138" y="-149" type="curve"/>
      <point x="124" y="-134" type="line"/>
      <point x="122" y="-134" type="line"/>
      <point x="112" y="-161"/>
      <point x="99" y="-177"/>
      <point x="78" y="-177" type="curve" smooth="yes"/>
      <point x="59" y="-177"/>
      <point x="49" y="-165"/>
      <point x="49" y="-150" type="curve" smooth="yes"/>
      <point x="49" y="-126"/>
      <point x="73" y="-83"/>
      <point x="128" y="0" type="curve"/>
    </contour>
    <component base="i"/>
  </outline>
</glyph>
<glyph name="lcaron" format="1">
  <advance width="375"/>
  <unicode hex="013E"/>
  <outline>
    <contour>
      <point x="214" y="204" type="move"/>
    </contour>
    <component base="l"/>
    <component base="caron.alt" xOffset="108" yOffset="-191"/>
  </outline>
</glyph>
<glyph name="lslash" format="1">
  <advance width="384"/>
  <unicode hex="0142"/>
  <outline>
    <contour>
      <point x="36" y="234" type="line"/>
      <point x="41" y="220" type="line"/>
      <point x="46" y="217" type="line"/>
      <point x="275" y="334" type="line"/>
      <point x="269" y="349" type="line"/>
      <point x="265" y="350" type="line"/>
    </contour>
    <component base="l" xOffset="18"/>
  </outline>
</glyph>
<glyph name="Eng" format="1">
  <advance width="670"/>
  <unicode hex="014A"/>
  <outline>
    <contour>
      <point x="540" y="636" type="line"/>
      <point x="538" y="42" type="line"/>
      <point x="534" y="42" type="line"/>
      <point x="130" y="637" type="line"/>
      <point x="111" y="637" type="line"/>
      <point x="110" y="190" type="line"/>
      <point x="110" y="0" type="line"/>
      <point x="130" y="0" type="line"/>
      <point x="130" y="199" type="line"/>
      <point x="131" y="595" type="line"/>
      <point x="135" y="595" type="line"/>
      <point x="535" y="5" type="line"/>
      <point x="527" y="-47"/>
      <point x="493" y="-83"/>
      <point x="418" y="-127" type="curve"/>
      <point x="418" y="-133" type="line"/>
      <point x="429" y="-144" type="line"/>
      <point x="524" y="-88"/>
      <point x="558" y="-40"/>
      <point x="558" y="39" type="curve" smooth="yes"/>
      <point x="559" y="176" type="line"/>
      <point x="560" y="638" type="line"/>
    </contour>
  </outline>
</glyph>
<glyph name="tbar" format="1">
  <advance width="428"/>
  <unicode hex="0167"/>
  <outline>
    <contour>
      <point x="103" y="260" type="line"/>
      <point x="101" y="243" type="line"/>
      <point x="104" y="240" type="line"/>
      <point x="326" y="240" type="line"/>
      <point x="328" y="257" type="line"/>
      <point x="325" y="260" type="line"/>
    </contour>
    <component base="t"/>
  </outline>
</glyph>
<glyph name="uogonek" format="1">
  <advance width="541"/>
  <unicode hex="0173"/>
  <outline>
    <contour>
      <point x="347" y="18" type="line"/>
      <point x="285" y="-74" type="line" smooth="yes"/>
      <point x="272" y="-93"/>
      <point x="265" y="-114"/>
      <point x="265" y="-134" type="curve" smooth="yes"/>
      <point x="265" y="-174"/>
      <point x="291" y="-199"/>
      <point x="330" y="-199" type="curve" smooth="yes"/>
      <point x="365" y="-199"/>
      <point x="397" y="-177"/>
      <point x="424" y="-142" type="curve"/>
      <point x="413" y="-126" type="line"/>
      <point x="411" y="-126" type="line"/>
      <point x="387" y="-159"/>
      <point x="358" y="-179"/>
      <point x="330" y="-179" type="curve" smooth="yes"/>
      <point x="302" y="-179"/>
      <point x="285" y="-160"/>
      <point x="285" y="-134" type="curve" smooth="yes"/>
      <point x="285" y="-118"/>
      <point x="290" y="-102"/>
      <point x="305" y="-80" type="curve" smooth="yes"/>
      <point x="378" y="29" type="line"/>
    </contour>
    <component base="u"/>
  </outline>
</glyph>
<glyph name="ogonek" format="1">
  <advance width="390"/>
  <unicode hex="02DB"/>
  <outline>
    <contour>
      <point x="208" y="20" type="line"/>
      <point x="146" y="-72" type="line" smooth="yes"/>
      <point x="133" y="-91"/>
      <point x="126" y="-112"/>
      <point x="126" y="-132" type="curve" smooth="yes"/>
      <point x="126" y="-172"/>
      <point x="152" y="-197"/>
      <point x="191" y="-197" type="curve" smooth="yes"/>
      <point x="226" y="-197"/>
      <point x="258" y="-175"/>
      <point x="285" y="-140" type="curve"/>
      <point x="274" y="-124" type="line"/>
      <point x="272" y="-124" type="line"/>
      <point x="248" y="-157"/>
      <point x="219" y="-177"/>
      <point x="191" y="-177" type="curve" smooth="yes"/>
      <point x="163" y="-177"/>
      <point x="146" y="-158"/>
      <point x="146" y="-132" type="curve" smooth="yes"/>
      <point x="146" y="-116"/>
      <point x="151" y="-100"/>
      <point x="166" y="-78" type="curve" smooth="yes"/>
      <point x="232" y="20" type="line"/>
    </contour>
    <contour>
      <point x="285" y="10" type="move" name="_ogonek"/>
    </contour>
  </outline>
</glyph>
<glyph name="hungarumlaut" format="1">
  <advance width="390"/>
  <unicode hex="02DD"/>
  <outline>
    <contour>
      <point x="190" y="517" type="line"/>
      <point x="195" y="516" type="line"/>
      <point x="244" y="560"/>
      <point x="292" y="605"/>
      <point x="339" y="651" type="curve"/>
      <point x="340" y="656" type="line"/>
      <point x="330" y="666" type="line"/>
      <point x="325" y="667" type="line"/>
      <point x="278" y="620"/>
      <point x="230" y="575"/>
      <point x="179" y="530" type="curve"/>
    </contour>
    <contour>
      <point x="60" y="517" type="line"/>
      <point x="65" y="516" type="line"/>
      <point x="114" y="560"/>
      <point x="162" y="605"/>
      <point x="209" y="651" type="curve"/>
      <point x="210" y="656" type="line"/>
      <point x="200" y="666" type="line"/>
      <point x="195" y="667" type="line"/>
      <point x="148" y="620"/>
      <point x="100" y="575"/>
      <point x="49" y="530" type="curve"/>
    </contour>
    <contour>
      <point x="155" y="452" type="move" name="_top"/>
    </contour>
  </outline>
</glyph>
<glyph name="Delta" format="1">
  <advance width="554"/>
  <unicode hex="0394"/>
  <outline>
    <contour>
      <point x="273" y="637" type="line"/>
      <point x="19" y="0" type="line"/>
      <point x="526" y="0" type="line"/>
      <point x="293" y="637" type="line"/>
    </contour>
    <contour>
      <point x="498" y="20" type="line"/>
      <point x="47" y="20" type="line"/>
      <point x="280" y="603" type="line"/>
      <point x="285" y="603" type="line"/>
    </contour>
  </outline>
</glyph>
<glyph name="guilsinglright" format="1">
  <advance width="209"/>
  <unicode hex="203A"/>
  <outline>
    <contour>
      <point x="21" y="387" type="line"/>
      <point x="21" y="381" type="line"/>
      <point x="166" y="223" type="line"/>
      <point x="21" y="65" type="line"/>
      <point x="21" y="59" type="line"/>
      <point x="33" y="50" type="line"/>
      <point x="188" y="218" type="line"/>
      <point x="188" y="229" type="line"/>
      <point x="33" y="396" type="line"/>
    </contour>
  </outline>
</glyph>
<glyph name="partialdiff" format="1">
  <advance width="503"/>
  <unicode hex="2202"/>
  <outline>
    <contour>
      <point x="86" y="714" type="line"/>
      <point x="80" y="707" type="line"/>
      <point x="80" y="700" type="line"/>
      <point x="303" y="617"/>
      <point x="425" y="465"/>
      <point x="425" y="253" type="curve"/>
      <point x="425" y="102"/>
      <point x="360" y="15"/>
      <point x="240" y="15" type="curve"/>
      <point x="128" y="15"/>
      <point x="67" y="81"/>
      <point x="67" y="201" type="curve"/>
      <point x="67" y="322"/>
      <point x="129" y="389"/>
      <point x="242" y="389" type="curve"/>
      <point x="302" y="389"/>
      <point x="367" y="360"/>
      <point x="425" y="309" type="curve"/>
      <point x="421" y="348" type="line"/>
      <point x="415" y="344" type="line"/>
      <point x="365" y="382"/>
      <point x="304" y="407"/>
      <point x="248" y="410" type="curve"/>
      <point x="119" y="410"/>
      <point x="47" y="336"/>
      <point x="47" y="201" type="curve"/>
      <point x="47" y="68"/>
      <point x="115" y="-6"/>
      <point x="240" y="-6" type="curve"/>
      <point x="371" y="-6"/>
      <point x="444" y="87"/>
      <point x="444" y="253" type="curve"/>
      <point x="444" y="473"/>
      <point x="316" y="630"/>
      <point x="92" y="714" type="curve"/>
    </contour>
  </outline>
</glyph>
<glyph name="C.ss01" format="1">
  <advance width="467"/>
  <outline>
    <contour>
      <point x="-100" y="471" type="line"/>
      <point x="567" y="471" type="line"/>
      <point x="567" y="491" type="line"/>
      <point x="-100" y="491" type="line"/>
    </contour>
    <contour>
      <point x="-100" y="0" type="line"/>
      <point x="567" y="0" type="line"/>
      <point x="567" y="20" type="line"/>
      <point x="-100" y="20" type="line"/>
    </contour>
    <component base="c" xOffset="4" yOffset="5" xScale="0.98" yScale="0.98"/>
  </outline>
</glyph>
<glyph name="D.ss01" format="1">
  <advance width="561"/>
  <outline>
    <contour>
      <point x="-100" y="471" type="line"/>
      <point x="661" y="471" type="line"/>
      <point x="661" y="491" type="line"/>
      <point x="-100" y="491" type="line"/>
    </contour>
    <contour>
      <point x="-100" y="0" type="line"/>
      <point x="661" y="0" type="line"/>
      <point x="661" y="20" type="line"/>
      <point x="-100" y="20" type="line"/>
    </contour>
    <component base="d" xOffset="6" yOffset="4" xScale="0.98" yScale="0.98"/>
  </outline>
</glyph>
<glyph name="L.ss01" format="1">
  <advance width="365"/>
  <outline>
    <contour>
      <point x="107" y="491" type="line"/>
      <point x="107" y="166" type="line"/>
      <point x="107" y="0" type="line"/>
      <point x="342" y="0" type="line"/>
      <point x="342" y="110" type="line"/>
      <point x="322" y="110" type="line"/>
      <point x="322" y="19" type="line"/>
      <point x="127" y="19" type="line"/>
      <point x="127" y="166" type="line"/>
      <point x="127" y="491" type="line"/>
    </contour>
    <contour>
      <point x="-100" y="20" type="line"/>
      <point x="-100" y="0" type="line"/>
      <point x="465" y="0" type="line"/>
      <point x="465" y="20" type="line"/>
    </contour>
    <contour>
      <point x="-100" y="491" type="line"/>
      <point x="-100" y="471" type="line"/>
      <point x="465" y="471" type="line"/>
      <point x="465" y="491" type="line"/>
    </contour>
  </outline>
</glyph>
<glyph name="X.ss01" format="1">
  <advance width="504"/>
  <outline>
    <contour>
      <point x="-100" y="471" type="line"/>
      <point x="604" y="471" type="line"/>
      <point x="604" y="491" type="line"/>
      <point x="-100" y="491" type="line"/>
    </contour>
    <contour>
      <point x="-100" y="0" type="line"/>
      <point x="604" y="0" type="line"/>
      <point x="604" y="20" type="line"/>
      <point x="-100" y="20" type="line"/>
    </contour>
    <component base="x" xOffset="2" yOffset="2" xScale="1" yScale="1"/>
  </outline>
</glyph>
<glyph name="circumflextilde" format="1">
  <advance width="390"/>
  <outline>
    <component base="circumflex.cap" yOffset="-20"/>
    <component base="tilde" xOffset="13" yOffset="90" xScale="0.95"/>
    <contour>
      <point x="195" y="452" type="move" name="_top"/>
    </contour>
  </outline>
</glyph>
<glyph name="dieresismacron" format="1">
  <advance width="390"/>
  <outline>
    <contour>
      <point x="252" y="595"/>
      <point x="244" y="587"/>
      <point x="244" y="575" type="curve" smooth="yes"/>
      <point x="244" y="563"/>
      <point x="252" y="555"/>
      <point x="264" y="555" type="curve" smooth="yes"/>
      <point x="276" y="555"/>
      <point x="284" y="563"/>
      <point x="284" y="575" type="curve" smooth="yes"/>
      <point x="284" y="587"/>
      <point x="276" y="595"/>
      <point x="264" y="595" type="curve" smooth="yes"/>
    </contour>
    <contour>
      <point x="112" y="595"/>
      <point x="104" y="587"/>
      <point x="104" y="575" type="curve" smooth="yes"/>
      <point x="104" y="563"/>
      <point x="112" y="555"/>
      <point x="124" y="555" type="curve" smooth="yes"/>
      <point x="136" y="555"/>
      <point x="144" y="563"/>
      <point x="144" y="575" type="curve" smooth="yes"/>
      <point x="144" y="587"/>
      <point x="136" y="595"/>
      <point x="124" y="595" type="curve" smooth="yes"/>
    </contour>
    <contour>
      <point x="76" y="691" type="line"/>
      <point x="74" y="674" type="line"/>
      <point x="77" y="671" type="line"/>
      <point x="314" y="671" type="line"/>
      <point x="316" y="688" type="line"/>
      <point x="313" y="691" type="line"/>
    </contour>
    <contour>
      <point x="195" y="452" type="move" name="_top"/>
    </contour>
  </outline>
</glyph>
<glyph name="four.lf" format="1">
  <advance width="479"/>
  <outline>
    <contour>
      <point x="298" y="586" type="line"/>
      <point x="38" y="214" type="line"/>
      <point x="38" y="197" type="line"/>
      <point x="41" y="193" type="line"/>
      <point x="83" y="194" type="line"/>
      <point x="352" y="194" type="line"/>
      <point x="423" y="193" type="line"/>
      <point x="427" y="210" type="line"/>
      <point x="423" y="214" type="line"/>
      <point x="62" y="214" type="line"/>
      <point x="294" y="547" type="line"/>
      <point x="298" y="547" type="line"/>
      <point x="298" y="204" type="line"/>
      <point x="298" y="0" type="line"/>
      <point x="300" y="-3" type="line"/>
      <point x="316" y="0" type="line"/>
      <point x="318" y="3" type="line"/>
      <point x="318" y="206" type="line"/>
      <point x="318" y="586" type="line"/>
    </contour>
  </outline>
</glyph>
<glyph name="hungarumlaut.cap" format="1">
  <advance width="390"/>
  <outline>
    <contour>
      <point x="206" y="536" type="line"/>
      <point x="211" y="535" type="line"/>
      <point x="249" y="570"/>
      <point x="286" y="604"/>
      <point x="323" y="640" type="curve"/>
      <point x="324" y="645" type="line"/>
      <point x="314" y="655" type="line"/>
      <point x="309" y="656" type="line"/>
      <point x="272" y="619"/>
      <point x="234" y="585"/>
      <point x="195" y="549" type="curve"/>
    </contour>
    <contour>
      <point x="76" y="536" type="line"/>
      <point x="81" y="535" type="line"/>
      <point x="119" y="570"/>
      <point x="156" y="604"/>
      <point x="193" y="640" type="curve"/>
      <point x="194" y="645" type="line"/>
      <point x="184" y="655" type="line"/>
      <point x="179" y="656" type="line"/>
      <point x="142" y="619"/>
      <point x="104" y="585"/>
      <point x="65" y="549" type="curve"/>
    </contour>
    <contour>
      <point x="168" y="452" type="move" name="_top"/>
    </contour>
  </outline>
</glyph>
<glyph name="i.sups" format="1">
  <advance width="176"/>
  <outline>
    <contour>
      <point x="77" y="638" type="line"/>
      <point x="77" y="475" type="line"/>
      <point x="77" y="350" type="line"/>
      <point x="99" y="350" type="line"/>
      <point x="98" y="476" type="line"/>
      <point x="99" y="641" type="line"/>
    </contour>
    <contour>
      <point x="78" y="759"/>
      <point x="71" y="752"/>
      <point x="71" y="742" type="curve" smooth="yes"/>
      <point x="71" y="732"/>
      <point x="77" y="725"/>
      <point x="88" y="725" type="curve" smooth="yes"/>
      <point x="98" y="725"/>
      <point x="105" y="732"/>
      <point x="105" y="742" type="curve" smooth="yes"/>
      <point x="105" y="752"/>
      <point x="98" y="759"/>
      <point x="88" y="759" type="curve" smooth="yes"/>
    </contour>
  </outline>
</glyph>
<glyph name="left" format="1">
  <advance width="401"/>
  <outline>
    <contour>
      <point x="31" y="221" type="line"/>
      <point x="301" y="86" type="line"/>
      <point x="301" y="356" type="line"/>
    </contour>
  </outline>
</glyph>
<glyph name="one.dnom" format="1">
  <advance width="240"/>
  <outline>
    <contour>
      <point x="16" y="339" type="line"/>
      <point x="16" y="323" type="line"/>
      <point x="20" y="321" type="line"/>
      <point x="118" y="348" type="line"/>
      <point x="118" y="126" type="line"/>
      <point x="118" y="0" type="line"/>
      <point x="138" y="0" type="line"/>
      <point x="138" y="130" type="line"/>
      <point x="138" y="370" type="line"/>
      <point x="135" y="374" type="line"/>
    </contour>
  </outline>
</glyph>
<glyph name="one.lf" format="1">
  <advance width="338"/>
  <outline>
    <contour>
      <point x="16" y="540" type="line"/>
      <point x="16" y="524" type="line"/>
      <point x="21" y="521" type="line"/>
      <point x="170" y="566" type="line"/>
      <point x="170" y="201" type="line"/>
      <point x="170" y="0" type="line"/>
      <point x="190" y="0" type="line"/>
      <point x="190" y="206" type="line"/>
      <point x="190" y="589" type="line"/>
      <point x="186" y="593" type="line"/>
    </contour>
  </outline>
</glyph>
<glyph name="r.sups" format="1">
  <advance width="201"/>
  <outline>
    <contour>
      <point x="71" y="638" type="line"/>
      <point x="71" y="475" type="line"/>
      <point x="71" y="350" type="line"/>
      <point x="93" y="350" type="line"/>
      <point x="92" y="476" type="line"/>
      <point x="92" y="641" type="line"/>
    </contour>
    <contour>
      <point x="149" y="640"/>
      <point x="121" y="618"/>
      <point x="95" y="571" type="curve"/>
      <point x="90" y="571" type="line"/>
      <point x="90" y="537" type="line"/>
      <point x="121" y="594"/>
      <point x="148" y="620"/>
      <point x="179" y="620" type="curve" smooth="yes"/>
      <point x="184" y="620"/>
      <point x="191" y="619"/>
      <point x="197" y="618" type="curve"/>
      <point x="201" y="619" type="line"/>
      <point x="201" y="639" type="line"/>
      <point x="197" y="640"/>
      <point x="190" y="640"/>
      <point x="184" y="640" type="curve" smooth="yes"/>
    </contour>
    <contour>
      <point x="98" y="0" type="move" name="bottom"/>
    </contour>
    <contour>
      <point x="147" y="290" type="move" name="top"/>
    </contour>
  </outline>
</glyph>
<glyph name="t.sups" format="1">
  <advance width="188"/>
  <outline>
    <contour>
      <point x="68" y="715" type="line"/>
      <point x="68" y="492" type="line"/>
      <point x="67" y="422" type="line" smooth="yes"/>
      <point x="67" y="375"/>
      <point x="91" y="347"/>
      <point x="133" y="347" type="curve" smooth="yes"/>
      <point x="149" y="347"/>
      <point x="168" y="354"/>
      <point x="187" y="364" type="curve"/>
      <point x="189" y="380" type="line"/>
      <point x="186" y="382" type="line"/>
      <point x="169" y="372"/>
      <point x="151" y="367"/>
      <point x="136" y="367" type="curve" smooth="yes"/>
      <point x="105" y="367"/>
      <point x="88" y="388"/>
      <point x="88" y="427" type="curve" smooth="yes"/>
      <point x="89" y="718" type="line"/>
      <point x="88" y="720" type="line"/>
    </contour>
    <contour>
      <point x="26" y="640" type="line"/>
      <point x="24" y="625" type="line"/>
      <point x="27" y="623" type="line"/>
      <point x="188" y="623" type="line"/>
      <point x="190" y="637" type="line"/>
      <point x="188" y="640" type="line"/>
    </contour>
    <contour>
      <point x="140" y="0" type="move" name="bottom"/>
    </contour>
    <contour>
      <point x="115" y="145" type="move" name="center"/>
    </contour>
  </outline>
</glyph>
<glyph name="w.sups" format="1">
  <advance width="420"/>
  <outline>
    <contour>
      <point x="13" y="639" type="line"/>
      <point x="101" y="350" type="line"/>
      <point x="124" y="350" type="line"/>
      <point x="213" y="607" type="line"/>
      <point x="216" y="607" type="line"/>
      <point x="293" y="350" type="line"/>
      <point x="316" y="350" type="line"/>
      <point x="419" y="640" type="line"/>
      <point x="397" y="640" type="line"/>
      <point x="387" y="610" type="line"/>
      <point x="307" y="379" type="line"/>
      <point x="304" y="379" type="line"/>
      <point x="235" y="611" type="line"/>
      <point x="228" y="640" type="line"/>
      <point x="204" y="640" type="line"/>
      <point x="195" y="610" type="line"/>
      <point x="115" y="379" type="line"/>
      <point x="112" y="379" type="line"/>
      <point x="42" y="611" type="line"/>
      <point x="34" y="642" type="line"/>
    </contour>
    <contour>
      <point x="229" y="290" type="move" name="top"/>
    </contour>
  </outline>
</glyph>
